<mxfile host="65bd71144e">
    <diagram id="Im8ea-tA6IL0opyn7fSu" name="Page-1">
        <mxGraphModel dx="659" dy="510" grid="1" gridSize="10" guides="1" tooltips="1" connect="1" arrows="1" fold="1" page="1" pageScale="1" pageWidth="1169" pageHeight="827" math="0" shadow="0">
            <root>
                <mxCell id="0"/>
                <mxCell id="1" parent="0"/>
                <mxCell id="38" value="" style="rounded=0;whiteSpace=wrap;html=1;fontSize=14;strokeWidth=1;fillColor=#b1ddf0;align=center;strokeColor=none;" vertex="1" parent="1">
                    <mxGeometry x="40" y="40" width="920" height="40" as="geometry"/>
                </mxCell>
                <mxCell id="36" value="" style="rounded=0;whiteSpace=wrap;html=1;fontSize=14;strokeWidth=1;fillColor=#b1ddf0;align=right;strokeColor=none;" vertex="1" parent="1">
                    <mxGeometry x="920" y="40" width="40" height="280" as="geometry"/>
                </mxCell>
                <mxCell id="17" value="" style="rounded=0;whiteSpace=wrap;html=1;strokeWidth=1;fillColor=#bac8d3;strokeColor=none;" vertex="1" parent="1">
                    <mxGeometry x="160" y="200" width="640" height="120" as="geometry"/>
                </mxCell>
                <mxCell id="8" value="" style="line;strokeWidth=2;html=1;" vertex="1" parent="1">
                    <mxGeometry x="40" y="35" width="160" height="10" as="geometry"/>
                </mxCell>
                <mxCell id="9" value="" style="line;strokeWidth=2;html=1;dashed=1;dashPattern=1 1;" vertex="1" parent="1">
                    <mxGeometry x="200" y="35" width="760" height="10" as="geometry"/>
                </mxCell>
                <mxCell id="10" value="" style="line;strokeWidth=2;direction=south;html=1;" vertex="1" parent="1">
                    <mxGeometry x="35" y="39" width="10" height="201" as="geometry"/>
                </mxCell>
                <mxCell id="12" value="" style="line;strokeWidth=2;direction=south;html=1;dashed=1;dashPattern=1 1;" vertex="1" parent="1">
                    <mxGeometry x="35" y="240" width="10" height="80" as="geometry"/>
                </mxCell>
                <mxCell id="13" value="" style="line;strokeWidth=2;html=1;" vertex="1" parent="1">
                    <mxGeometry x="160" y="195" width="80" height="10" as="geometry"/>
                </mxCell>
                <mxCell id="14" value="" style="line;strokeWidth=2;direction=south;html=1;" vertex="1" parent="1">
                    <mxGeometry x="155" y="199" width="10" height="61" as="geometry"/>
                </mxCell>
                <mxCell id="15" value="" style="line;strokeWidth=2;html=1;dashed=1;dashPattern=1 1;" vertex="1" parent="1">
                    <mxGeometry x="240" y="195" width="680" height="10" as="geometry"/>
                </mxCell>
                <mxCell id="16" value="" style="line;strokeWidth=2;direction=south;html=1;dashed=1;dashPattern=1 1;" vertex="1" parent="1">
                    <mxGeometry x="155" y="260" width="10" height="60" as="geometry"/>
                </mxCell>
                <mxCell id="18" value="" style="whiteSpace=wrap;html=1;aspect=fixed;strokeWidth=1;fontColor=#ffffff;fillColor=none;strokeColor=#009900;" vertex="1" parent="1">
                    <mxGeometry x="150" y="30" width="20" height="20" as="geometry"/>
                </mxCell>
                <mxCell id="20" value="" style="line;strokeWidth=2;direction=south;html=1;fillColor=#1ba1e2;fontColor=#ffffff;strokeColor=#009900;" vertex="1" parent="1">
                    <mxGeometry x="155" y="30" width="10" height="20" as="geometry"/>
                </mxCell>
                <mxCell id="22" value="" style="line;strokeWidth=2;html=1;fillColor=#1ba1e2;fontColor=#ffffff;strokeColor=#009900;" vertex="1" parent="1">
                    <mxGeometry x="150" y="35" width="20" height="10" as="geometry"/>
                </mxCell>
                <mxCell id="23" value="" style="whiteSpace=wrap;html=1;aspect=fixed;strokeWidth=1;fontColor=#ffffff;fillColor=none;strokeColor=#009900;" vertex="1" parent="1">
                    <mxGeometry x="150" y="190" width="20" height="20" as="geometry"/>
                </mxCell>
                <mxCell id="24" value="" style="endArrow=blockThin;html=1;entryX=0.506;entryY=0.488;entryDx=0;entryDy=0;entryPerimeter=0;endFill=1;" edge="1" parent="1" source="25" target="22">
                    <mxGeometry width="50" height="50" relative="1" as="geometry">
                        <mxPoint x="180" y="80" as="sourcePoint"/>
                        <mxPoint x="240" y="70" as="targetPoint"/>
                    </mxGeometry>
                </mxCell>
                <mxCell id="25" value="" style="line;strokeWidth=1;html=1;perimeter=backbonePerimeter;points=[];outlineConnect=0;fillColor=none;" vertex="1" parent="1">
                    <mxGeometry x="180" y="105" width="30" height="10" as="geometry"/>
                </mxCell>
                <mxCell id="26" value="INT signal is raised here&lt;br&gt;(T-state 0)" style="text;html=1;strokeColor=none;fillColor=none;align=left;verticalAlign=middle;whiteSpace=wrap;rounded=0;fontSize=14;" vertex="1" parent="1">
                    <mxGeometry x="210" y="90" width="190" height="40" as="geometry"/>
                </mxCell>
                <mxCell id="27" value="" style="shape=curlyBracket;whiteSpace=wrap;html=1;rounded=1;fontSize=14;strokeWidth=1;fillColor=none;align=left;strokeColor=#4D4D4D;" vertex="1" parent="1">
                    <mxGeometry x="130" y="40" width="20" height="160" as="geometry"/>
                </mxCell>
                <mxCell id="28" value="64 lines&lt;br&gt;(224 T-states&lt;br&gt;per line)" style="text;html=1;strokeColor=none;fillColor=none;align=center;verticalAlign=middle;whiteSpace=wrap;rounded=0;fontSize=14;" vertex="1" parent="1">
                    <mxGeometry x="43" y="84" width="90" height="70" as="geometry"/>
                </mxCell>
                <mxCell id="29" value="" style="endArrow=blockThin;html=1;endFill=1;" edge="1" parent="1" source="30">
                    <mxGeometry width="50" height="50" relative="1" as="geometry">
                        <mxPoint x="180" y="170" as="sourcePoint"/>
                        <mxPoint x="160" y="200" as="targetPoint"/>
                    </mxGeometry>
                </mxCell>
                <mxCell id="30" value="" style="line;strokeWidth=1;html=1;perimeter=backbonePerimeter;points=[];outlineConnect=0;fillColor=none;" vertex="1" parent="1">
                    <mxGeometry x="180" y="155" width="30" height="10" as="geometry"/>
                </mxCell>
                <mxCell id="31" value="Top-left display pixel&lt;br&gt;(T-state 14336)" style="text;html=1;strokeColor=none;fillColor=none;align=left;verticalAlign=middle;whiteSpace=wrap;rounded=0;fontSize=14;" vertex="1" parent="1">
                    <mxGeometry x="210" y="140" width="190" height="40" as="geometry"/>
                </mxCell>
                <mxCell id="32" value="" style="whiteSpace=wrap;html=1;aspect=fixed;strokeWidth=1;fontColor=#ffffff;fillColor=none;strokeColor=#009900;" vertex="1" parent="1">
                    <mxGeometry x="790" y="190" width="20" height="20" as="geometry"/>
                </mxCell>
                <mxCell id="33" value="" style="endArrow=blockThin;html=1;endFill=1;" edge="1" parent="1" source="34">
                    <mxGeometry width="50" height="50" relative="1" as="geometry">
                        <mxPoint x="780" y="170" as="sourcePoint"/>
                        <mxPoint x="800" y="200" as="targetPoint"/>
                    </mxGeometry>
                </mxCell>
                <mxCell id="34" value="" style="line;strokeWidth=1;html=1;perimeter=backbonePerimeter;points=[];outlineConnect=0;fillColor=none;" vertex="1" parent="1">
                    <mxGeometry x="750" y="155" width="30" height="10" as="geometry"/>
                </mxCell>
                <mxCell id="35" value="Last pixel in the first line&lt;br&gt;(T-state 14463)" style="text;html=1;strokeColor=none;fillColor=none;align=right;verticalAlign=middle;whiteSpace=wrap;rounded=0;fontSize=14;" vertex="1" parent="1">
                    <mxGeometry x="560" y="141" width="190" height="40" as="geometry"/>
                </mxCell>
                <mxCell id="37" value="Non-visible area" style="text;html=1;strokeColor=none;fillColor=none;align=center;verticalAlign=middle;whiteSpace=wrap;rounded=0;fontSize=14;rotation=-90;fontStyle=2;fontColor=#666666;" vertex="1" parent="1">
                    <mxGeometry x="800" y="170" width="280" height="20" as="geometry"/>
                </mxCell>
                <mxCell id="39" value="Non-visible area" style="text;html=1;strokeColor=none;fillColor=none;align=center;verticalAlign=middle;whiteSpace=wrap;rounded=0;fontSize=14;rotation=0;fontStyle=2;fontColor=#666666;" vertex="1" parent="1">
                    <mxGeometry x="40" y="50" width="920" height="20" as="geometry"/>
                </mxCell>
                <mxCell id="40" value="Display area" style="text;html=1;strokeColor=none;fillColor=none;align=center;verticalAlign=middle;whiteSpace=wrap;rounded=0;fontSize=14;rotation=0;fontStyle=2;fontColor=#666666;" vertex="1" parent="1">
                    <mxGeometry x="160" y="250" width="640" height="20" as="geometry"/>
                </mxCell>
                <mxCell id="41" value="" style="whiteSpace=wrap;html=1;aspect=fixed;strokeWidth=1;fontColor=#ffffff;fillColor=none;strokeColor=#009900;" vertex="1" parent="1">
                    <mxGeometry x="910" y="190" width="20" height="20" as="geometry"/>
                </mxCell>
                <mxCell id="42" value="" style="endArrow=blockThin;html=1;endFill=1;" edge="1" parent="1" source="43">
                    <mxGeometry width="50" height="50" relative="1" as="geometry">
                        <mxPoint x="900" y="140" as="sourcePoint"/>
                        <mxPoint x="920" y="200" as="targetPoint"/>
                    </mxGeometry>
                </mxCell>
                <mxCell id="43" value="" style="line;strokeWidth=1;html=1;perimeter=backbonePerimeter;points=[];outlineConnect=0;fillColor=none;" vertex="1" parent="1">
                    <mxGeometry x="870" y="115" width="30" height="10" as="geometry"/>
                </mxCell>
                <mxCell id="44" value="Last border pixel in the first line&lt;br&gt;(T-state 14487)" style="text;html=1;strokeColor=none;fillColor=none;align=right;verticalAlign=middle;whiteSpace=wrap;rounded=0;fontSize=14;" vertex="1" parent="1">
                    <mxGeometry x="660" y="105" width="210" height="40" as="geometry"/>
                </mxCell>
                <mxCell id="45" value="Border area" style="text;html=1;strokeColor=none;fillColor=none;align=center;verticalAlign=middle;whiteSpace=wrap;rounded=0;fontSize=14;rotation=0;fontStyle=2" vertex="1" parent="1">
                    <mxGeometry x="40" y="125" width="920" height="20" as="geometry"/>
                </mxCell>
                <mxCell id="46" value="Border area" style="text;html=1;strokeColor=none;fillColor=none;align=center;verticalAlign=middle;whiteSpace=wrap;rounded=0;fontSize=14;rotation=0;fontStyle=2;fontColor=#666666;" vertex="1" parent="1">
                    <mxGeometry x="40" y="250" width="120" height="20" as="geometry"/>
                </mxCell>
                <mxCell id="47" value="Border area" style="text;html=1;strokeColor=none;fillColor=none;align=center;verticalAlign=middle;whiteSpace=wrap;rounded=0;fontSize=14;rotation=0;fontStyle=2;fontColor=#666666;" vertex="1" parent="1">
                    <mxGeometry x="800" y="250" width="120" height="20" as="geometry"/>
                </mxCell>
            </root>
        </mxGraphModel>
    </diagram>
</mxfile>